<svg id="Hobby_Market_Place_Logo" data-name="Hobby Market Place Logo" xmlns="http://www.w3.org/2000/svg" width="351.312" height="285.312" viewBox="0 0 351.312 285.312">
  <defs>
    <style>
      .cls-1 {
        fill: #fad3d3;
      }

      .cls-1, .cls-2, .cls-3 {
        fill-rule: evenodd;
      }

      .cls-2 {
        fill: #7eeed8;
      }

      .cls-3 {
        fill: #142837;
      }
    </style>
  </defs>
  <path id="Abgerundetes_Rechteck_4_Kopie" data-name="Abgerundetes Rechteck 4 Kopie" class="cls-1" d="M511.326,274.316l88.849,88.848a52.8,52.8,0,0,1,0,74.662l-88.849,88.849a52.8,52.8,0,0,1-74.662,0l-88.848-88.849a52.8,52.8,0,0,1,0-74.662l88.848-88.848A52.8,52.8,0,0,1,511.326,274.316Z" transform="translate(-264.344 -257.844)"/>
  <path id="Abgerundetes_Rechteck_4_Kopie_2" data-name="Abgerundetes Rechteck 4 Kopie 2" class="cls-2" d="M443.326,275.316l88.849,88.848a52.8,52.8,0,0,1,0,74.662l-88.849,88.849a52.8,52.8,0,0,1-74.662,0l-88.848-88.849a52.8,52.8,0,0,1,0-74.662l88.848-88.848A52.8,52.8,0,0,1,443.326,275.316Z" transform="translate(-264.344 -257.844)"/>
  <path id="Abgerundetes_Rechteck_4" data-name="Abgerundetes Rechteck 4" class="cls-3" d="M477.326,273.316l88.849,88.848a52.8,52.8,0,0,1,0,74.662l-88.849,88.849a52.8,52.8,0,0,1-74.662,0l-88.848-88.849a52.8,52.8,0,0,1,0-74.662l88.848-88.848A52.8,52.8,0,0,1,477.326,273.316Z" transform="translate(-264.344 -257.844)"/>
  <path id="marketplace" class="cls-1" d="M379.725,430.636a10.5,10.5,0,0,0-.25-2.328,5.258,5.258,0,0,0-.837-1.926,4.281,4.281,0,0,0-1.539-1.313,5.081,5.081,0,0,0-2.353-.492,4.438,4.438,0,0,0-1.152.154,5.121,5.121,0,0,0-1.176.491,8.279,8.279,0,0,0-1.257.886,15.077,15.077,0,0,0-1.378,1.338,5.232,5.232,0,0,0-.644-1.169,3.951,3.951,0,0,0-.935-0.9,4.372,4.372,0,0,0-1.265-.588,5.76,5.76,0,0,0-1.619-.21,4.77,4.77,0,0,0-2.328.637,9.389,9.389,0,0,0-2.377,2.006V425.3a0.4,0.4,0,0,0-.057-0.218,0.5,0.5,0,0,0-.185-0.161,0.956,0.956,0,0,0-.362-0.1q-0.234-.024-0.589-0.024a5.893,5.893,0,0,0-.6.024,1.093,1.093,0,0,0-.37.1,0.427,0.427,0,0,0-.194.161,0.453,0.453,0,0,0-.048.218v14.5a0.4,0.4,0,0,0,.056.217,0.448,0.448,0,0,0,.21.153,1.614,1.614,0,0,0,.411.1,5.43,5.43,0,0,0,.644.032,5.626,5.626,0,0,0,.661-0.032,1.493,1.493,0,0,0,.4-0.1,0.509,0.509,0,0,0,.209-0.153,0.358,0.358,0,0,0,.065-0.217V429.669a12.1,12.1,0,0,1,2.03-2.078,3.066,3.066,0,0,1,1.853-.709,2.663,2.663,0,0,1,1.281.29,2.419,2.419,0,0,1,.894.838,4.106,4.106,0,0,1,.532,1.305,7.368,7.368,0,0,1,.177,1.676v8.814a0.392,0.392,0,0,0,.057.217,0.439,0.439,0,0,0,.209.153,1.633,1.633,0,0,0,.419.1,6.426,6.426,0,0,0,1.281,0,1.614,1.614,0,0,0,.411-0.1,0.5,0.5,0,0,0,.217-0.153,0.358,0.358,0,0,0,.065-0.217V429.669a12.726,12.726,0,0,1,2.038-2.078,3.034,3.034,0,0,1,1.845-.709,2.709,2.709,0,0,1,1.289.29,2.413,2.413,0,0,1,.9.838,3.853,3.853,0,0,1,.515,1.305,8.1,8.1,0,0,1,.161,1.676v8.814a0.358,0.358,0,0,0,.065.217,0.5,0.5,0,0,0,.217.153,1.614,1.614,0,0,0,.411.1,5.626,5.626,0,0,0,.661.032,5.442,5.442,0,0,0,.644-0.032,1.483,1.483,0,0,0,.4-0.1,0.507,0.507,0,0,0,.21-0.153,0.364,0.364,0,0,0,.064-0.217v-9.169Zm15.775-.6a8.241,8.241,0,0,0-.306-2.369,4.026,4.026,0,0,0-.983-1.7,4.3,4.3,0,0,0-1.772-1.039,8.72,8.72,0,0,0-2.659-.355,9.051,9.051,0,0,0-1.66.154,11.171,11.171,0,0,0-1.514.386,8.241,8.241,0,0,0-1.225.516,3.517,3.517,0,0,0-.749.491,0.922,0.922,0,0,0-.274.443,2.814,2.814,0,0,0-.057.637,2.747,2.747,0,0,0,.033.443,0.979,0.979,0,0,0,.1.33,0.554,0.554,0,0,0,.169.194,0.4,0.4,0,0,0,.226.064,1.362,1.362,0,0,0,.588-0.233q0.395-.234.983-0.516a9.457,9.457,0,0,1,1.37-.516,6.182,6.182,0,0,1,1.764-.233,4.774,4.774,0,0,1,1.547.217,2.453,2.453,0,0,1,1.023.645,2.538,2.538,0,0,1,.572,1.071,5.62,5.62,0,0,1,.177,1.483v1.128h-2a14.191,14.191,0,0,0-3.045.3,7.065,7.065,0,0,0-2.288.894,4.156,4.156,0,0,0-1.434,1.5,4.32,4.32,0,0,0-.5,2.126,4.584,4.584,0,0,0,.363,1.87,3.876,3.876,0,0,0,1.015,1.385,4.448,4.448,0,0,0,1.579.862,6.734,6.734,0,0,0,2.071.3,5.631,5.631,0,0,0,2.473-.564,7.16,7.16,0,0,0,2.119-1.58v1.451a0.359,0.359,0,0,0,.113.29,0.806,0.806,0,0,0,.362.145,3.707,3.707,0,0,0,.669.048,3.413,3.413,0,0,0,.661-0.048,0.923,0.923,0,0,0,.354-0.145,0.34,0.34,0,0,0,.129-0.29V430.04Zm-2.643,6.236a8.361,8.361,0,0,1-1.877,1.627,3.725,3.725,0,0,1-1.941.532,2.825,2.825,0,0,1-2.006-.669,2.333,2.333,0,0,1-.718-1.8,2.624,2.624,0,0,1,.25-1.169,2.272,2.272,0,0,1,.782-0.87,3.934,3.934,0,0,1,1.337-.548,8.6,8.6,0,0,1,1.9-.185h2.271v3.078Zm15.993-10.611a2.143,2.143,0,0,0-.032-0.33,0.908,0.908,0,0,0-.057-0.185,0.44,0.44,0,0,0-.129-0.154,1.114,1.114,0,0,0-.33-0.161,4.976,4.976,0,0,0-.524-0.145,4.344,4.344,0,0,0-.556-0.088c-0.177-.016-0.335-0.025-0.475-0.025a3.644,3.644,0,0,0-.926.121,3.088,3.088,0,0,0-.927.435,6.189,6.189,0,0,0-.991.862,11.5,11.5,0,0,0-1.12,1.418V425.3a0.4,0.4,0,0,0-.056-0.218,0.516,0.516,0,0,0-.185-0.161,0.962,0.962,0,0,0-.363-0.1q-0.234-.024-0.588-0.024a5.879,5.879,0,0,0-.6.024,1.1,1.1,0,0,0-.371.1,0.423,0.423,0,0,0-.193.161,0.453,0.453,0,0,0-.049.218v14.5a0.392,0.392,0,0,0,.057.217,0.439,0.439,0,0,0,.209.153,1.614,1.614,0,0,0,.411.1,5.46,5.46,0,0,0,.645.032,5.619,5.619,0,0,0,.66-0.032,1.493,1.493,0,0,0,.4-0.1,0.507,0.507,0,0,0,.21-0.153,0.364,0.364,0,0,0,.064-0.217v-9.54q0.564-.885,1.031-1.5a6.639,6.639,0,0,1,.895-0.983,3.1,3.1,0,0,1,.813-0.532,2.044,2.044,0,0,1,.79-0.161,2.89,2.89,0,0,1,.628.065c0.194,0.043.368,0.088,0.524,0.137s0.3,0.1.419,0.145a0.9,0.9,0,0,0,.314.072,0.276,0.276,0,0,0,.2-0.072,0.556,0.556,0,0,0,.12-0.21,1.445,1.445,0,0,0,.065-0.379c0.01-.161.016-0.359,0.016-0.6S408.855,425.81,408.85,425.665Zm14.856,13.809a3.311,3.311,0,0,0-.3-0.443l-5.9-7.654,5.253-5.253a2.287,2.287,0,0,0,.346-0.451,0.805,0.805,0,0,0,.1-0.387,0.353,0.353,0,0,0-.073-0.233,0.52,0.52,0,0,0-.241-0.145,1.969,1.969,0,0,0-.443-0.081q-0.275-.024-0.677-0.024-0.387,0-.661.024a1.9,1.9,0,0,0-.475.1,1.376,1.376,0,0,0-.347.177,1.455,1.455,0,0,0-.274.266l-5.478,6.026V418.277a0.4,0.4,0,0,0-.064-0.225,0.485,0.485,0,0,0-.21-0.162,1.5,1.5,0,0,0-.4-0.1,5.408,5.408,0,0,0-.66-0.032,5.253,5.253,0,0,0-.645.032,1.619,1.619,0,0,0-.411.1,0.419,0.419,0,0,0-.209.162,0.432,0.432,0,0,0-.057.225v21.528a0.392,0.392,0,0,0,.057.217,0.439,0.439,0,0,0,.209.153,1.614,1.614,0,0,0,.411.1,5.46,5.46,0,0,0,.645.032,5.619,5.619,0,0,0,.66-0.032,1.493,1.493,0,0,0,.4-0.1,0.513,0.513,0,0,0,.21-0.153,0.364,0.364,0,0,0,.064-0.217v-8.041l6.123,8.024a1.205,1.205,0,0,0,.218.25,0.809,0.809,0,0,0,.314.161,2.437,2.437,0,0,0,.475.081q0.282,0.024.717,0.024a6.253,6.253,0,0,0,.693-0.032,1.644,1.644,0,0,0,.427-0.1,0.482,0.482,0,0,0,.218-0.161,0.4,0.4,0,0,0,.064-0.226A0.687,0.687,0,0,0,423.706,439.474Zm14.494-8.032a9.554,9.554,0,0,0-.362-2.667A5.947,5.947,0,0,0,436.7,426.6a5.51,5.51,0,0,0-1.974-1.475,6.982,6.982,0,0,0-2.909-.548,7.222,7.222,0,0,0-2.884.556,6.091,6.091,0,0,0-2.2,1.6,7.106,7.106,0,0,0-1.394,2.529,10.876,10.876,0,0,0-.484,3.36,11.471,11.471,0,0,0,.468,3.448,6.338,6.338,0,0,0,1.385,2.466,5.821,5.821,0,0,0,2.264,1.482,8.988,8.988,0,0,0,3.134.5,11.715,11.715,0,0,0,1.942-.154,15.681,15.681,0,0,0,1.6-.346,7.552,7.552,0,0,0,1.128-.395,2.366,2.366,0,0,0,.524-0.29,0.942,0.942,0,0,0,.145-0.185,0.745,0.745,0,0,0,.081-0.218c0.016-.08.029-0.171,0.04-0.274s0.016-.222.016-0.362a4.272,4.272,0,0,0-.024-0.492,1.235,1.235,0,0,0-.073-0.314,0.353,0.353,0,0,0-.34-0.225,1.587,1.587,0,0,0-.575.169q-0.381.169-.972,0.378a10.925,10.925,0,0,1-1.4.379,9.064,9.064,0,0,1-1.846.169,5.873,5.873,0,0,1-2.218-.37,3.642,3.642,0,0,1-1.474-1.064,4.174,4.174,0,0,1-.809-1.659,8.947,8.947,0,0,1-.243-2.176h9.55a1.086,1.086,0,0,0,.721-0.266,1.112,1.112,0,0,0,.315-0.894v-0.483Zm-10.586-.306a5.949,5.949,0,0,1,.308-1.7,4.5,4.5,0,0,1,.778-1.426,3.753,3.753,0,0,1,1.248-.983,3.854,3.854,0,0,1,1.735-.371,3.552,3.552,0,0,1,2.91,1.192,4.842,4.842,0,0,1,.932,3.288h-7.911Zm21.962,7.122a1.886,1.886,0,0,0-.072-0.306,0.271,0.271,0,0,0-.113-0.154,0.32,0.32,0,0,0-.153-0.04,0.707,0.707,0,0,0-.29.073q-0.162.072-.387,0.153c-0.15.054-.322,0.1-0.516,0.153a2.744,2.744,0,0,1-.66.072,1.676,1.676,0,0,1-1.587-.765,4.6,4.6,0,0,1-.443-2.264v-8.089h3.722a0.433,0.433,0,0,0,.386-0.258,1.793,1.793,0,0,0,.145-0.838,3.409,3.409,0,0,0-.032-0.515,1.078,1.078,0,0,0-.105-0.347,0.466,0.466,0,0,0-.169-0.193,0.442,0.442,0,0,0-.225-0.056h-3.722v-3.449a0.369,0.369,0,0,0-.065-0.209,0.522,0.522,0,0,0-.209-0.169,1.282,1.282,0,0,0-.4-0.105,5.626,5.626,0,0,0-.661-0.032,5.43,5.43,0,0,0-.644.032,1.372,1.372,0,0,0-.411.105,0.459,0.459,0,0,0-.21.169,0.4,0.4,0,0,0-.056.209v3.449h-2.014a0.493,0.493,0,0,0-.234.056,0.406,0.406,0,0,0-.169.193,1.494,1.494,0,0,0-.105.347,2.781,2.781,0,0,0-.04.515,1.793,1.793,0,0,0,.145.838,0.435,0.435,0,0,0,.387.258h2.03v8.476a8.984,8.984,0,0,0,.234,2.183,3.706,3.706,0,0,0,.749,1.531,3.111,3.111,0,0,0,1.321.9,5.58,5.58,0,0,0,1.934.3,5.762,5.762,0,0,0,.741-0.048c0.247-.032.48-0.073,0.7-0.121a3.155,3.155,0,0,0,.588-0.185,1.26,1.26,0,0,0,.387-0.242,0.838,0.838,0,0,0,.193-0.4,3.368,3.368,0,0,0,.064-0.741A2.96,2.96,0,0,0,449.576,438.258Zm16.565-8.919a7.466,7.466,0,0,0-1.024-2.473,5.066,5.066,0,0,0-1.812-1.676,6.022,6.022,0,0,0-4.069-.443,5.778,5.778,0,0,0-1.273.5,7.633,7.633,0,0,0-1.232.83,15.235,15.235,0,0,0-1.273,1.176V425.3a0.427,0.427,0,0,0-.057-0.234,0.448,0.448,0,0,0-.2-0.153,1.236,1.236,0,0,0-.363-0.089,5.242,5.242,0,0,0-.556-0.024,5.3,5.3,0,0,0-.548.024,1.247,1.247,0,0,0-.37.089,0.394,0.394,0,0,0-.194.153,0.491,0.491,0,0,0-.048.234v20.254a0.439,0.439,0,0,0,.057.226,0.418,0.418,0,0,0,.209.161,1.577,1.577,0,0,0,.411.1,5.221,5.221,0,0,0,.644.033,5.387,5.387,0,0,0,.661-0.033,1.46,1.46,0,0,0,.4-0.1,0.474,0.474,0,0,0,.209-0.161,0.4,0.4,0,0,0,.065-0.226v-7.251q0.581,0.564,1.1.983a6.26,6.26,0,0,0,1.039.693,4.544,4.544,0,0,0,1.071.4,5.257,5.257,0,0,0,1.193.129,6.088,6.088,0,0,0,2.691-.572,5.416,5.416,0,0,0,1.974-1.628,7.455,7.455,0,0,0,1.208-2.57,13.055,13.055,0,0,0,.411-3.416A13.432,13.432,0,0,0,466.141,429.339Zm-2.644,5.309a6.48,6.48,0,0,1-.657,1.8,3.642,3.642,0,0,1-1.167,1.289,3.032,3.032,0,0,1-1.727.483,3.5,3.5,0,0,1-2.075-.709,11.5,11.5,0,0,1-2.091-2.046V429.7a13.218,13.218,0,0,1,1.2-1.33,7.222,7.222,0,0,1,1.086-.87,4.183,4.183,0,0,1,1.021-.483,3.492,3.492,0,0,1,1.022-.153,2.974,2.974,0,0,1,1.734.483,3.457,3.457,0,0,1,1.111,1.289,6.223,6.223,0,0,1,.583,1.845,13.234,13.234,0,0,1,.171,2.151A9.763,9.763,0,0,1,463.5,434.648Zm9.621-16.371a0.394,0.394,0,0,0-.065-0.225,0.481,0.481,0,0,0-.209-0.162,1.5,1.5,0,0,0-.4-0.1,5.415,5.415,0,0,0-.661-0.032,5.235,5.235,0,0,0-.644.032,1.619,1.619,0,0,0-.411.1,0.427,0.427,0,0,0-.21.162,0.442,0.442,0,0,0-.056.225v21.528a0.4,0.4,0,0,0,.056.217,0.448,0.448,0,0,0,.21.153,1.614,1.614,0,0,0,.411.1,5.442,5.442,0,0,0,.644.032,5.626,5.626,0,0,0,.661-0.032,1.493,1.493,0,0,0,.4-0.1,0.509,0.509,0,0,0,.209-0.153,0.358,0.358,0,0,0,.065-0.217V418.277Zm15.839,11.763a8.241,8.241,0,0,0-.306-2.369,4.026,4.026,0,0,0-.983-1.7,4.3,4.3,0,0,0-1.772-1.039,8.72,8.72,0,0,0-2.659-.355,9.051,9.051,0,0,0-1.66.154,11.171,11.171,0,0,0-1.514.386,8.241,8.241,0,0,0-1.225.516,3.517,3.517,0,0,0-.749.491,0.922,0.922,0,0,0-.274.443,2.814,2.814,0,0,0-.057.637,2.747,2.747,0,0,0,.033.443,0.979,0.979,0,0,0,.1.33,0.546,0.546,0,0,0,.17.194,0.394,0.394,0,0,0,.225.064,1.362,1.362,0,0,0,.588-0.233q0.395-.234.983-0.516a9.457,9.457,0,0,1,1.37-.516,6.182,6.182,0,0,1,1.764-.233,4.774,4.774,0,0,1,1.547.217,2.453,2.453,0,0,1,1.023.645,2.538,2.538,0,0,1,.572,1.071,5.618,5.618,0,0,1,.178,1.483v1.128h-2a14.191,14.191,0,0,0-3.045.3,7.065,7.065,0,0,0-2.288.894,4.156,4.156,0,0,0-1.434,1.5,4.32,4.32,0,0,0-.5,2.126,4.584,4.584,0,0,0,.363,1.87,3.876,3.876,0,0,0,1.015,1.385,4.448,4.448,0,0,0,1.579.862,6.734,6.734,0,0,0,2.071.3,5.631,5.631,0,0,0,2.473-.564,7.16,7.16,0,0,0,2.119-1.58v1.451a0.362,0.362,0,0,0,.113.29,0.806,0.806,0,0,0,.362.145,3.707,3.707,0,0,0,.669.048,3.413,3.413,0,0,0,.661-0.048,0.923,0.923,0,0,0,.354-0.145,0.34,0.34,0,0,0,.129-0.29V430.04Zm-2.642,6.236a8.363,8.363,0,0,1-1.878,1.627,3.725,3.725,0,0,1-1.941.532,2.825,2.825,0,0,1-2.006-.669,2.332,2.332,0,0,1-.717-1.8,2.624,2.624,0,0,1,.249-1.169,2.272,2.272,0,0,1,.782-0.87,3.934,3.934,0,0,1,1.337-.548,8.6,8.6,0,0,1,1.9-.185h2.272v3.078Zm17.926,0.765a1.716,1.716,0,0,0-.081-0.387,0.489,0.489,0,0,0-.137-0.217,0.3,0.3,0,0,0-.193-0.065,1.018,1.018,0,0,0-.54.282q-0.346.282-.854,0.629a6.755,6.755,0,0,1-1.2.636,4.136,4.136,0,0,1-1.611.29,4.048,4.048,0,0,1-1.716-.346,3.227,3.227,0,0,1-1.265-1.056,5.061,5.061,0,0,1-.781-1.764,10.084,10.084,0,0,1-.266-2.457,7.479,7.479,0,0,1,1.023-4.278,3.361,3.361,0,0,1,2.941-1.475,4.476,4.476,0,0,1,1.619.266,6.105,6.105,0,0,1,1.168.588,9.077,9.077,0,0,1,.8.588,0.913,0.913,0,0,0,.556.266,0.415,0.415,0,0,0,.354-0.249,1.888,1.888,0,0,0,.145-0.879c0-.193,0-0.354-0.016-0.483a1.616,1.616,0,0,0-.064-0.346,1.148,1.148,0,0,0-.121-0.266,2.022,2.022,0,0,0-.266-0.306,3.919,3.919,0,0,0-.62-0.468,5.4,5.4,0,0,0-.975-0.483,7.348,7.348,0,0,0-1.2-.338,6.917,6.917,0,0,0-1.345-.129,7.349,7.349,0,0,0-2.667.475,5.668,5.668,0,0,0-2.143,1.458,6.95,6.95,0,0,0-1.434,2.522,11.48,11.48,0,0,0-.524,3.682,11.765,11.765,0,0,0,.427,3.327,6.832,6.832,0,0,0,1.241,2.433A5.23,5.23,0,0,0,496.514,440a7.006,7.006,0,0,0,2.772.516,7.355,7.355,0,0,0,1.466-.145,8.189,8.189,0,0,0,1.313-.379,6.6,6.6,0,0,0,1.088-.532,4.053,4.053,0,0,0,.685-0.5,1.625,1.625,0,0,0,.258-0.307,1.287,1.287,0,0,0,.1-0.241,1.7,1.7,0,0,0,.057-0.339c0.01-.134.016-0.292,0.016-0.475A5.541,5.541,0,0,0,504.241,437.041Zm15.928-5.6a9.517,9.517,0,0,0-.363-2.667,5.932,5.932,0,0,0-1.136-2.175,5.51,5.51,0,0,0-1.974-1.475,6.977,6.977,0,0,0-2.908-.548,7.227,7.227,0,0,0-2.885.556,6.1,6.1,0,0,0-2.2,1.6,7.106,7.106,0,0,0-1.394,2.529,10.877,10.877,0,0,0-.483,3.36,11.473,11.473,0,0,0,.467,3.448,6.327,6.327,0,0,0,1.386,2.466,5.814,5.814,0,0,0,2.264,1.482,8.98,8.98,0,0,0,3.134.5,11.712,11.712,0,0,0,1.941-.154,15.7,15.7,0,0,0,1.6-.346,7.593,7.593,0,0,0,1.128-.395,2.349,2.349,0,0,0,.523-0.29,0.942,0.942,0,0,0,.145-0.185,0.693,0.693,0,0,0,.081-0.218c0.016-.08.029-0.171,0.04-0.274a3.437,3.437,0,0,0,.016-0.362,4.272,4.272,0,0,0-.024-0.492,1.194,1.194,0,0,0-.073-0.314,0.36,0.36,0,0,0-.138-0.169,0.372,0.372,0,0,0-.2-0.056,1.587,1.587,0,0,0-.575.169q-0.381.169-.971,0.378a10.9,10.9,0,0,1-1.4.379,9.064,9.064,0,0,1-1.846.169,5.873,5.873,0,0,1-2.218-.37,3.642,3.642,0,0,1-1.474-1.064,4.2,4.2,0,0,1-.809-1.659,8.947,8.947,0,0,1-.243-2.176h9.55a1.086,1.086,0,0,0,.721-0.266,1.113,1.113,0,0,0,.316-0.894v-0.483Zm-10.587-.306a5.949,5.949,0,0,1,.308-1.7,4.5,4.5,0,0,1,.778-1.426,3.746,3.746,0,0,1,1.249-.983,3.85,3.85,0,0,1,1.734-.371,3.549,3.549,0,0,1,2.91,1.192,4.847,4.847,0,0,1,.933,3.288h-7.912Z" transform="translate(-264.344 -257.844)"/>
  <path id="hobby" class="cls-2" d="M384.116,381.078a23.368,23.368,0,0,0-.548-5.446,10.926,10.926,0,0,0-1.793-3.951,8.792,8.792,0,0,0-3.27-2.689,11.222,11.222,0,0,0-4.981-1,10.566,10.566,0,0,0-4.914,1.278,17.973,17.973,0,0,0-4.914,4v-18.76a0.7,0.7,0,0,0-.1-0.365,0.807,0.807,0,0,0-.316-0.282,1.772,1.772,0,0,0-.6-0.166,7.879,7.879,0,0,0-.98-0.05,7.533,7.533,0,0,0-.946.05,1.952,1.952,0,0,0-.614.166,0.668,0.668,0,0,0-.316.282,0.809,0.809,0,0,0-.083.365v44.758a0.806,0.806,0,0,0,.083.365,0.586,0.586,0,0,0,.316.266,2.867,2.867,0,0,0,.614.166,5.682,5.682,0,0,0,.946.066,5.943,5.943,0,0,0,.98-0.066,2.547,2.547,0,0,0,.6-0.166,0.663,0.663,0,0,0,.415-0.631V377.724a24.938,24.938,0,0,1,4.815-4.781,7.881,7.881,0,0,1,4.582-1.627,6.862,6.862,0,0,1,3.138.681,5.88,5.88,0,0,1,2.208,1.926,8.977,8.977,0,0,1,1.294,2.988,19.412,19.412,0,0,1,.432,4.532v17.83a0.667,0.667,0,0,0,.415.631,2.543,2.543,0,0,0,.6.166,5.93,5.93,0,0,0,.979.066,5.7,5.7,0,0,0,.947-0.066,2.547,2.547,0,0,0,.6-0.166,0.663,0.663,0,0,0,.415-0.631v-18.2Zm36.657-3.785a13.928,13.928,0,0,0-2.657-5.031,11.4,11.4,0,0,0-4.4-3.171,15.991,15.991,0,0,0-6.159-1.1,15.72,15.72,0,0,0-6.442,1.228,12.54,12.54,0,0,0-4.6,3.437,14.662,14.662,0,0,0-2.756,5.229,22.754,22.754,0,0,0-.913,6.608,23.362,23.362,0,0,0,.88,6.674,13.556,13.556,0,0,0,2.656,5.03,11.686,11.686,0,0,0,4.416,3.187,15.759,15.759,0,0,0,6.159,1.113,15.415,15.415,0,0,0,6.408-1.246,12.629,12.629,0,0,0,4.6-3.469,15.076,15.076,0,0,0,2.772-5.246,22.373,22.373,0,0,0,.93-6.608A22.862,22.862,0,0,0,420.773,377.293Zm-3.885,12.052a11.575,11.575,0,0,1-1.843,4.018,8.633,8.633,0,0,1-3.2,2.656,11.9,11.9,0,0,1-9.529-.066,8.274,8.274,0,0,1-3.122-2.789,11.822,11.822,0,0,1-1.66-4.1,23.644,23.644,0,0,1-.5-4.931,20.1,20.1,0,0,1,.6-5.013,11.741,11.741,0,0,1,1.843-4.034,8.564,8.564,0,0,1,3.2-2.673,10.431,10.431,0,0,1,4.648-.963,10.28,10.28,0,0,1,4.881,1.046,8.36,8.36,0,0,1,3.121,2.822,12,12,0,0,1,1.66,4.1,23.237,23.237,0,0,1,.5,4.88A20.241,20.241,0,0,1,416.888,389.345ZM456.1,377.724a15.057,15.057,0,0,0-2.109-5.047,10.525,10.525,0,0,0-3.752-3.42A11.438,11.438,0,0,0,444.679,368a11.678,11.678,0,0,0-2.507.265,10.518,10.518,0,0,0-2.44.88,15.079,15.079,0,0,0-2.524,1.627,26.022,26.022,0,0,0-2.723,2.507v-18.76a0.7,0.7,0,0,0-.1-0.365,0.807,0.807,0,0,0-.316-0.282,1.772,1.772,0,0,0-.6-0.166,7.879,7.879,0,0,0-.98-0.05,7.533,7.533,0,0,0-.946.05,1.952,1.952,0,0,0-.614.166,0.672,0.672,0,0,0-.316.282,0.809,0.809,0,0,0-.083.365v44.758a0.89,0.89,0,0,0,.083.4,0.589,0.589,0,0,0,.3.265,2.071,2.071,0,0,0,.565.15,6.142,6.142,0,0,0,.846.049,5.787,5.787,0,0,0,.83-0.049,2.33,2.33,0,0,0,.565-0.15,0.686,0.686,0,0,0,.332-0.265,0.767,0.767,0,0,0,.1-0.4v-3.885q1.362,1.362,2.54,2.325A15.993,15.993,0,0,0,439,399.306a9,9,0,0,0,2.308.913,11.041,11.041,0,0,0,2.573.283,12.578,12.578,0,0,0,5.528-1.162,11.1,11.1,0,0,0,4.051-3.321,14.981,14.981,0,0,0,2.474-5.229,26.572,26.572,0,0,0,.83-6.923A27.407,27.407,0,0,0,456.1,377.724Zm-3.952,11.323a13.578,13.578,0,0,1-1.494,4.05A8.721,8.721,0,0,1,448,396a6.779,6.779,0,0,1-3.918,1.112,8.276,8.276,0,0,1-4.8-1.61,25.03,25.03,0,0,1-4.8-4.632V377.791a29.319,29.319,0,0,1,2.706-3,16.821,16.821,0,0,1,2.474-1.976,9.047,9.047,0,0,1,2.341-1.1,8.227,8.227,0,0,1,2.308-.333A6.794,6.794,0,0,1,448.3,372.5a8.169,8.169,0,0,1,2.557,2.938,13.912,13.912,0,0,1,1.361,4.184,29.216,29.216,0,0,1,.4,4.881A22.5,22.5,0,0,1,452.149,389.047Zm39.28-11.323a15.057,15.057,0,0,0-2.109-5.047,10.525,10.525,0,0,0-3.752-3.42A11.438,11.438,0,0,0,480.007,368a11.685,11.685,0,0,0-2.507.265,10.518,10.518,0,0,0-2.44.88,15.079,15.079,0,0,0-2.524,1.627,25.92,25.92,0,0,0-2.722,2.507v-18.76a0.7,0.7,0,0,0-.1-0.365,0.8,0.8,0,0,0-.315-0.282,1.785,1.785,0,0,0-.6-0.166,7.879,7.879,0,0,0-.98-0.05,7.533,7.533,0,0,0-.946.05,1.952,1.952,0,0,0-.614.166,0.672,0.672,0,0,0-.316.282,0.809,0.809,0,0,0-.083.365v44.758a0.89,0.89,0,0,0,.083.4,0.589,0.589,0,0,0,.3.265,2.071,2.071,0,0,0,.565.15,6.142,6.142,0,0,0,.846.049,5.787,5.787,0,0,0,.83-0.049,2.33,2.33,0,0,0,.565-0.15,0.686,0.686,0,0,0,.332-0.265,0.767,0.767,0,0,0,.1-0.4v-3.885a34.418,34.418,0,0,0,2.54,2.325,15.932,15.932,0,0,0,2.307,1.593,9,9,0,0,0,2.308.913,11.041,11.041,0,0,0,2.573.283,12.578,12.578,0,0,0,5.528-1.162,11.1,11.1,0,0,0,4.051-3.321,14.981,14.981,0,0,0,2.474-5.229,26.572,26.572,0,0,0,.83-6.923A27.407,27.407,0,0,0,491.429,377.724Zm-3.951,11.323a13.606,13.606,0,0,1-1.5,4.05A8.71,8.71,0,0,1,483.327,396a6.777,6.777,0,0,1-3.918,1.112,8.276,8.276,0,0,1-4.8-1.61,25,25,0,0,1-4.8-4.632V377.791a29.088,29.088,0,0,1,2.706-3,16.764,16.764,0,0,1,2.473-1.976,9.047,9.047,0,0,1,2.341-1.1,8.232,8.232,0,0,1,2.308-.333,6.792,6.792,0,0,1,3.984,1.113,8.16,8.16,0,0,1,2.557,2.938,13.912,13.912,0,0,1,1.361,4.184,29.216,29.216,0,0,1,.4,4.881A22.574,22.574,0,0,1,487.478,389.047Zm36.291-19.225a2.1,2.1,0,0,0,.166-0.714,0.553,0.553,0,0,0-.2-0.448,1.272,1.272,0,0,0-.614-0.233,6.86,6.86,0,0,0-1.046-.066,10.881,10.881,0,0,0-1.129.05,2.07,2.07,0,0,0-.747.2,1.059,1.059,0,0,0-.448.614l-9.23,26.231h-0.133l-9.4-26.231a2.2,2.2,0,0,0-.216-0.4,0.785,0.785,0,0,0-.365-0.266,2.75,2.75,0,0,0-.68-0.149,10.712,10.712,0,0,0-1.163-.05,9.837,9.837,0,0,0-1.112.05,1.073,1.073,0,0,0-.6.216,0.578,0.578,0,0,0-.182.448,2.353,2.353,0,0,0,.166.747l10.924,29.318a1.251,1.251,0,0,0,.265.465,1.128,1.128,0,0,0,.465.332l-4.25,10.658a1.394,1.394,0,0,0-.133.681,0.7,0.7,0,0,0,.249.465,1.273,1.273,0,0,0,.615.249,6.244,6.244,0,0,0,1,.066,4.249,4.249,0,0,0,1.693-.249,1.344,1.344,0,0,0,.7-0.614l4.184-11.256Z" transform="translate(-264.344 -257.844)"/>
</svg>
